HIERARCHY
ROOT Hips
{
	OFFSET 0.000000 0.000000 0.000000 
	CHANNELS 6 Xposition Yposition Zposition Yrotation Xrotation Zrotation
	JOINT Spine
	{
		OFFSET 0.000000 0.072080 0.012321 
		CHANNELS 3 Xrotation Yrotation Zrotation
		JOINT Spine1
		{
			OFFSET 0.000000 0.126984 -0.001294 
			CHANNELS 3 Xrotation Yrotation Zrotation
			JOINT Spine2
			{
				OFFSET 0.000000 0.106559 -0.010096 
				CHANNELS 3 Xrotation Yrotation Zrotation
				JOINT Neck
				{
					OFFSET 0.000000 0.108417 -0.034017 
					CHANNELS 3 Xrotation Yrotation Zrotation
					JOINT Neck1
					{
						OFFSET 0.000000 0.033906 0.007241 
						CHANNELS 3 Xrotation Yrotation Zrotation
						JOINT Head
						{
							OFFSET 0.000000 0.031458 0.006707 
							CHANNELS 3 Xrotation Yrotation Zrotation
							End Site
							{
								OFFSET 0.000000 0.179920 0.000962 
							}
						}
					}
				}
				JOINT LeftShoulder
				{
					OFFSET 0.048002 0.079586 -0.029634 
					CHANNELS 3 Zrotation Xrotation Yrotation
					JOINT LeftArm
					{
						OFFSET 0.096243 -0.008695 -0.014012 
						CHANNELS 3 Zrotation Xrotation Yrotation
						JOINT LeftForeArm
						{
							OFFSET 0.216305 0.000000 0.000000 
							CHANNELS 3 Xrotation Zrotation Yrotation
							JOINT LeftHand
							{
								OFFSET 0.217764 0.000000 0.000000 
								CHANNELS 3 Zrotation Yrotation Xrotation
								JOINT LeftHandThumb1
								{
									OFFSET 0.018582 -0.007835 0.020476 
									CHANNELS 3 Zrotation Xrotation Yrotation
									JOINT LeftHandThumb2
									{
										OFFSET 0.026269 -0.007835 0.022186 
										CHANNELS 3 Zrotation Xrotation Yrotation
										JOINT LeftHandThumb3
										{
											OFFSET 0.035170 -0.010504 0.017018 
											CHANNELS 3 Zrotation Xrotation Yrotation
											End Site
											{
												OFFSET 0.020312 -0.007813 0.007813 
											}
										}
									}
								}
								JOINT LeftHandMiddle1
								{
									OFFSET 0.081749 0.004803 0.003358 
									CHANNELS 3 Zrotation Xrotation Yrotation
									JOINT LeftHandMiddle2
									{
										OFFSET 0.045251 0.000000 0.000000 
										CHANNELS 3 Zrotation Xrotation Yrotation
										JOINT LeftHandMiddle3
										{
											OFFSET 0.029009 0.000000 0.000000 
											CHANNELS 3 Zrotation Xrotation Yrotation
											End Site
											{
												OFFSET 0.017969 0.000000 0.000000 
											}
										}
									}
								}
								JOINT LeftHandIndex1
								{
									OFFSET 0.081207 0.004803 0.021137 
									CHANNELS 3 Zrotation Xrotation Yrotation
									JOINT LeftHandIndex2
									{
										OFFSET 0.043354 0.000000 0.000000 
										CHANNELS 3 Zrotation Xrotation Yrotation
										JOINT LeftHandIndex3
										{
											OFFSET 0.026493 0.000000 0.000000 
											CHANNELS 3 Zrotation Xrotation Yrotation
											End Site
											{
												OFFSET 0.019531 0.000000 0.000000 
											}
										}
									}
								}
								JOINT LeftHandRing1
								{
									OFFSET 0.080666 0.002509 -0.014652 
									CHANNELS 3 Zrotation Xrotation Yrotation
									JOINT LeftHandRing2
									{
										OFFSET 0.042541 0.000000 0.000000 
										CHANNELS 3 Zrotation Xrotation Yrotation
										JOINT LeftHandRing3
										{
											OFFSET 0.029009 0.000000 0.000000 
											CHANNELS 3 Zrotation Xrotation Yrotation
											End Site
											{
												OFFSET 0.015625 0.000000 0.000000 
											}
										}
									}
								}
								JOINT LeftHandPinky1
								{
									OFFSET 0.078227 -0.000612 -0.030993 
									CHANNELS 3 Zrotation Xrotation Yrotation
									JOINT LeftHandPinky2
									{
										OFFSET 0.028721 0.000000 0.000000 
										CHANNELS 3 Zrotation Xrotation Yrotation
										JOINT LeftHandPinky3
										{
											OFFSET 0.021963 0.000000 0.000000 
											CHANNELS 3 Zrotation Xrotation Yrotation
											End Site
											{
												OFFSET 0.022656 0.000000 0.000000 
											}
										}
									}
								}
							}
						}
					}
				}
				JOINT RightShoulder
				{
					OFFSET -0.047970 0.079586 -0.029634 
					CHANNELS 3 Zrotation Xrotation Yrotation
					JOINT RightArm
					{
						OFFSET -0.096274 -0.008695 -0.014012 
						CHANNELS 3 Zrotation Xrotation Yrotation
						JOINT RightForeArm
						{
							OFFSET -0.216305 0.000000 0.000000 
							CHANNELS 3 Xrotation Zrotation Yrotation
							JOINT RightHand
							{
								OFFSET -0.217764 0.000000 0.000000 
								CHANNELS 3 Zrotation Yrotation Xrotation
								JOINT RightHandThumb1
								{
									OFFSET -0.019670 -0.007318 0.019638 
									CHANNELS 3 Zrotation Xrotation Yrotation
									JOINT RightHandThumb2
									{
										OFFSET -0.025498 -0.008492 0.023179 
										CHANNELS 3 Zrotation Xrotation Yrotation
										JOINT RightHandThumb3
										{
											OFFSET -0.034504 -0.010705 0.016680 
											CHANNELS 3 Zrotation Xrotation Yrotation
											End Site
											{
												OFFSET -0.020312 -0.007813 0.007813 
											}
										}
									}
								}
								JOINT RightHandIndex1
								{
									OFFSET -0.081770 0.003825 0.021187 
									CHANNELS 3 Zrotation Xrotation Yrotation
									JOINT RightHandIndex2
									{
										OFFSET -0.042006 0.000000 0.000000 
										CHANNELS 3 Zrotation Xrotation Yrotation
										JOINT RightHandIndex3
										{
											OFFSET -0.026449 0.000000 0.000000 
											CHANNELS 3 Zrotation Xrotation Yrotation
											End Site
											{
												OFFSET -0.020312 0.000000 0.000000 
											}
										}
									}
								}
								JOINT RightHandMiddle1
								{
									OFFSET -0.084059 0.003825 0.003342 
									CHANNELS 3 Zrotation Xrotation Yrotation
									JOINT RightHandMiddle2
									{
										OFFSET -0.043881 0.000000 0.000000 
										CHANNELS 3 Zrotation Xrotation Yrotation
										JOINT RightHandMiddle3
										{
											OFFSET -0.029191 0.000000 0.000000 
											CHANNELS 3 Zrotation Xrotation Yrotation
											End Site
											{
												OFFSET -0.017969 0.000000 0.000000 
											}
										}
									}
								}
								JOINT RightHandRing1
								{
									OFFSET -0.081798 0.003030 -0.015127 
									CHANNELS 3 Zrotation Xrotation Yrotation
									JOINT RightHandRing2
									{
										OFFSET -0.042198 0.000000 0.000000 
										CHANNELS 3 Zrotation Xrotation Yrotation
										JOINT RightHandRing3
										{
											OFFSET -0.026497 0.000000 0.000000 
											CHANNELS 3 Zrotation Xrotation Yrotation
											End Site
											{
												OFFSET -0.017188 0.000000 0.000000 
											}
										}
									}
								}
								JOINT RightHandPinky1
								{
									OFFSET -0.077902 -0.000930 -0.030891 
									CHANNELS 3 Zrotation Xrotation Yrotation
									JOINT RightHandPinky2
									{
										OFFSET -0.028538 0.000000 0.000000 
										CHANNELS 3 Zrotation Xrotation Yrotation
										JOINT RightHandPinky3
										{
											OFFSET -0.021734 0.000000 0.000000 
											CHANNELS 3 Zrotation Xrotation Yrotation
											End Site
											{
												OFFSET -0.022656 0.000000 0.000000 
											}
										}
									}
								}
							}
						}
					}
				}
			}
		}
	}
	JOINT LeftUpLeg
	{
		OFFSET 0.075264 -0.025573 0.000000 
		CHANNELS 3 Xrotation Yrotation Zrotation
		JOINT LeftLeg
		{
			OFFSET 0.000000 -0.326016 -0.013516 
			CHANNELS 3 Xrotation Yrotation Zrotation
			JOINT LeftFoot
			{
				OFFSET 0.000098 -0.306172 -0.006623 
				CHANNELS 3 Xrotation Yrotation Zrotation
				JOINT LeftToeBase
				{
					OFFSET -0.001432 -0.095259 0.064705 
					CHANNELS 3 Xrotation Yrotation Zrotation
					End Site
					{
						OFFSET 0.000000 0.000000 0.079438 
					}
				}
			}
		}
	}
	JOINT RightUpLeg
	{
		OFFSET -0.075264 -0.025573 0.000000 
		CHANNELS 3 Xrotation Yrotation Zrotation
		JOINT RightLeg
		{
			OFFSET 0.000000 -0.326016 -0.013516 
			CHANNELS 3 Xrotation Yrotation Zrotation
			JOINT RightFoot
			{
				OFFSET 0.000098 -0.306172 -0.006623 
				CHANNELS 3 Xrotation Yrotation Zrotation
				JOINT RightToeBase
				{
					OFFSET -0.001432 -0.095259 0.064705 
					CHANNELS 3 Xrotation Yrotation Zrotation
					End Site
					{
						OFFSET 0.000025 0.000000 0.079438 
					}
				}
			}
		}
	}
}
MOTION
Frames: 6
Frame Time: 0.033333
0.000115 0.735564 0.000023 1.580400 -0.892800 -4.921500 1.288300 -1.210500 2.554700 0.728700 0.264200 5.944700 0.710800 0.781500 5.852000 1.045300 -0.304700 -2.164000 -0.000000 0.000000 -0.000000 1.584900 0.544200 -8.140500 -4.916300 4.768000 -13.405900 -83.437798 -3.039800 4.401200 -0.000000 0.000000 -14.506700 -14.044800 -0.184200 -21.888399 6.239100 23.778299 5.843400 -6.591800 -9.477200 17.620701 2.665500 -2.262400 5.146800 -13.171100 -0.729500 4.771100 -33.601101 -0.459000 0.597000 -12.350700 -0.015300 0.239700 -4.902500 0.010200 1.517300 -20.736099 -0.255000 0.708700 -10.199800 -0.017700 -0.228100 -24.224800 -1.395600 6.751100 -40.371201 0.185300 0.277300 -19.427500 0.238300 -0.036400 -33.932999 -2.698000 10.689000 -45.787300 -0.183400 -0.365800 -20.697399 -0.171800 0.776100 5.481700 4.804400 2.879000 67.336800 0.135400 1.378100 -0.000000 -0.000000 17.736799 14.727000 -8.709800 -8.442000 -6.574600 24.604099 -7.453400 7.335700 -9.310700 -15.826000 -1.536100 -2.228700 -4.219600 5.576200 0.003900 -1.764200 20.714600 -0.332600 -1.133800 13.815200 -0.104100 0.951800 13.769400 -0.779400 -5.187800 33.575100 -0.659400 -1.261700 15.979800 -0.075800 -0.401700 24.768900 -1.541500 -7.382100 40.357800 -0.100600 -1.055200 17.751400 0.083000 1.507500 34.370602 -2.950600 -11.494900 45.780499 -0.546900 -0.495000 22.067699 -0.425200 1.799900 -21.040300 10.439000 16.037001 26.743099 9.467200 2.128500 -4.431500 3.500500 -9.335600 -0.442000 -0.000000 0.000000 -1.132900 -4.811500 10.585300 12.397100 -5.103400 3.411100 -10.357000 1.007300 -8.294100 -0.548700 -0.000000 -0.000000 
0.010088 0.734630 -0.003952 -0.991200 -0.892600 -4.915000 1.205700 -1.652700 2.528400 0.711300 -0.198500 6.059700 0.728800 0.320800 5.973800 0.772600 0.496500 -2.044200 -0.000000 0.000000 -0.000000 1.382500 2.308400 -8.449400 -4.707200 4.752200 -13.597700 -83.727997 -3.126300 4.763200 0.000000 0.000000 -14.340000 -14.091000 0.138800 -21.862499 6.207500 23.819901 5.914200 -6.569300 -9.450400 17.584600 2.660400 -2.260400 5.158900 -13.100200 -0.725800 4.775900 -33.600498 -0.459000 0.597000 -12.350300 -0.015300 0.239700 -4.837300 0.015900 1.528300 -20.730801 -0.254900 0.708700 -10.194500 -0.017700 -0.228000 -24.179100 -1.394000 6.764400 -40.379002 0.185300 0.277300 -19.435699 0.238400 -0.036400 -33.880798 -2.698000 10.720300 -45.786301 -0.183400 -0.365800 -20.696400 -0.171800 0.776100 5.809900 4.884400 2.697600 67.050903 -0.353200 1.076200 -0.000000 -0.000000 17.432199 15.020700 -7.791900 -7.908700 -6.890900 24.418100 -6.808700 7.339200 -9.382300 -16.129101 -1.505400 -2.239700 -4.306600 6.293100 -0.020600 -1.803200 20.672501 -0.331700 -1.133300 13.773100 -0.103900 0.952600 14.263500 -0.809500 -5.239500 33.583000 -0.659600 -1.261700 15.988300 -0.075800 -0.401900 25.184900 -1.565500 -7.362000 40.335400 -0.100400 -1.054800 17.728300 0.082900 1.508000 34.761200 -2.979900 -11.546400 45.703201 -0.545600 -0.494300 21.990499 -0.424000 1.801000 -21.603399 10.873600 16.008301 28.676800 9.987200 1.366800 -5.680400 5.048400 -8.571200 -0.208600 0.000000 0.000000 -3.697000 -4.804500 9.223300 16.720301 -4.497800 3.700200 -11.802500 2.540300 -7.373600 -0.489300 0.000000 0.000000 
0.022053 0.733725 -0.006920 -3.562600 -0.892800 -4.912400 1.132800 -2.092500 2.510300 0.698000 -0.676700 6.173400 0.750600 -0.155600 6.094800 0.510700 1.214600 -1.899400 -0.000000 0.000000 -0.000000 1.143800 3.924600 -8.708200 -4.494500 4.735500 -13.806600 -84.028702 -3.228300 5.166500 -0.000000 0.000000 -14.143600 -14.179200 0.517100 -21.816999 6.165000 23.875099 5.976400 -6.540800 -9.428700 17.546000 2.654800 -2.258100 5.172200 -13.025900 -0.721900 4.781500 -33.599201 -0.459000 0.597000 -12.349000 -0.015300 0.239700 -4.772200 0.022100 1.542100 -20.726200 -0.254900 0.708800 -10.189900 -0.017700 -0.228000 -24.132200 -1.392400 6.779000 -40.384499 0.185300 0.277300 -19.441601 0.238400 -0.036400 -33.827900 -2.698100 10.753800 -45.786201 -0.183400 -0.365800 -20.696301 -0.171800 0.776100 6.116200 4.959300 2.522300 66.750397 -0.923500 0.742700 0.000000 0.000000 17.291901 15.165700 -6.784000 -7.374500 -7.233200 24.198900 -6.146900 7.339500 -9.452600 -16.426600 -1.517200 -2.247600 -4.394000 6.959900 -0.044900 -1.835800 20.632000 -0.330900 -1.132700 13.732600 -0.103700 0.953400 14.715300 -0.837100 -5.280800 33.593601 -0.659900 -1.261800 15.999400 -0.075900 -0.402100 25.566900 -1.587500 -7.342600 40.317001 -0.100200 -1.054500 17.709299 0.082800 1.508300 35.125801 -3.005500 -11.584100 45.629501 -0.544300 -0.493600 21.916800 -0.422900 1.802100 -22.152500 11.645900 15.845900 30.545500 10.011800 0.721500 -7.089300 6.797100 -7.644100 -0.051700 -0.000000 -0.000000 -5.721500 -4.535700 7.739300 19.893499 -3.831900 4.076400 -12.747600 3.825300 -6.428700 -0.665200 0.000000 -0.000000 
0.035547 0.732848 -0.008145 -6.134000 -0.892800 -4.911200 1.087300 -2.537200 2.512500 0.697800 -1.209000 6.279200 0.784600 -0.686700 6.209100 0.274100 1.706000 -1.697400 -0.000000 0.000000 -0.000000 0.817600 5.160900 -8.859800 -4.290800 4.718900 -14.024700 -84.319397 -3.378400 5.688800 0.000000 -0.000000 -13.861700 -14.323600 1.019600 -21.734501 6.097700 23.961500 6.029600 -6.497600 -9.413700 17.497900 2.648000 -2.255400 5.188100 -12.935400 -0.717200 4.789200 -33.595600 -0.459000 0.597100 -12.345600 -0.015300 0.239700 -4.697800 0.030600 1.564600 -20.719999 -0.254800 0.708800 -10.183700 -0.017700 -0.228000 -24.074100 -1.390400 6.796600 -40.385799 0.185400 0.277300 -19.443501 0.238500 -0.036400 -33.768501 -2.698300 10.793300 -45.789398 -0.183400 -0.365900 -20.699600 -0.171900 0.776100 6.394600 5.026300 2.390600 66.407402 -1.719600 0.341700 -0.000000 -0.000000 17.579901 14.919000 -5.537500 -6.846600 -7.622500 23.907400 -5.466400 7.326900 -9.516100 -16.696199 -1.641500 -2.246900 -4.477700 7.466300 -0.067000 -1.852300 20.597401 -0.330300 -1.132300 13.698000 -0.103500 0.954000 15.032100 -0.856100 -5.281800 33.613602 -0.660300 -1.261900 16.019400 -0.076000 -0.402400 25.841499 -1.602700 -7.317100 40.312099 -0.100200 -1.054400 17.703800 0.082800 1.508500 35.413700 -3.020700 -11.584600 45.571899 -0.543300 -0.493100 21.859200 -0.422100 1.802900 -22.629101 12.829400 15.580600 32.266998 9.993300 0.249400 -8.642200 8.387800 -6.654700 -0.000100 0.000000 -0.000000 -7.356800 -3.997300 6.151700 22.285700 -3.042700 4.562300 -13.389600 4.987400 -5.484100 -0.879100 -0.000000 -0.000000 
0.049367 0.732024 -0.006944 -8.705300 -0.892800 -4.910900 1.089500 -3.006100 2.552400 0.721000 -1.843600 6.367000 0.841000 -1.321200 6.307400 0.078600 1.825100 -1.407700 -0.000000 0.000000 -0.000000 0.356700 5.796800 -8.859300 -4.108900 4.703400 -14.229800 -84.565804 -3.615000 6.410800 -0.000000 0.000000 -13.428400 -14.497700 1.710500 -21.600401 6.000500 24.085400 6.087700 -6.435900 -9.399300 17.432899 2.640000 -2.252200 5.207100 -12.814600 -0.711000 4.799500 -33.588501 -0.458900 0.597200 -12.338700 -0.015300 0.239700 -4.600600 0.043100 1.600800 -20.708700 -0.254700 0.708900 -10.172400 -0.017700 -0.228000 -23.992300 -1.387400 6.818400 -40.382599 0.185300 0.277300 -19.441000 0.238400 -0.036400 -33.692902 -2.698600 10.841900 -45.796600 -0.183400 -0.365900 -20.706699 -0.171900 0.776000 6.659500 5.087100 2.341900 65.986198 -2.883900 -0.139200 -0.000000 -0.000000 18.512699 14.028200 -3.924700 -6.396300 -8.053800 23.535601 -4.795400 7.288100 -9.564100 -16.899500 -1.930800 -2.232800 -4.548300 7.691900 -0.083600 -1.844600 20.573900 -0.329800 -1.131900 13.674500 -0.103400 0.954400 15.117200 -0.860400 -5.214700 33.648602 -0.661200 -1.262200 16.053400 -0.076300 -0.403000 25.931700 -1.606300 -7.279700 40.329399 -0.100300 -1.054700 17.720400 0.082900 1.508100 35.568401 -3.019600 -11.531000 45.544701 -0.542900 -0.492900 21.832001 -0.421700 1.803300 -22.922199 14.359000 15.251400 33.737701 9.946400 -0.000900 -10.296000 9.748900 -5.739300 0.000000 -0.000000 0.000000 -8.569900 -3.213400 4.560000 23.954901 -1.949300 5.098800 -13.809700 6.126900 -4.607900 -0.777100 0.000000 -0.000000 
0.062045 0.731309 -0.003166 -11.276400 -0.892700 -4.911200 1.151200 -3.526100 2.644100 0.774800 -2.609700 6.426200 0.926400 -2.088600 6.379100 -0.068300 1.533100 -1.024100 -0.000000 0.000000 -0.000000 -0.243100 5.806800 -8.717400 -3.943700 4.688900 -14.400900 -84.745399 -3.962200 7.351000 -0.000000 0.000000 -12.810100 -14.627700 2.598700 -21.410999 5.892000 24.223499 6.177700 -6.365200 -9.370600 17.350800 2.631400 -2.248800 5.227300 -12.663500 -0.703100 4.810300 -33.578400 -0.458800 0.597300 -12.328900 -0.015300 0.239800 -4.473700 0.059400 1.647700 -20.691200 -0.254400 0.709000 -10.154800 -0.017700 -0.228000 -23.882900 -1.383100 6.842300 -40.377998 0.185300 0.277300 -19.437000 0.238400 -0.036400 -33.593201 -2.698200 10.897100 -45.804001 -0.183400 -0.365900 -20.714100 -0.172000 0.776000 6.939800 5.148000 2.380000 65.473999 -4.437300 -0.649700 -0.000000 0.000000 20.047701 12.415200 -1.967800 -6.186600 -8.468600 23.151300 -4.207100 7.213300 -9.586400 -16.992800 -2.354900 -2.206500 -4.592500 7.591300 -0.091000 -1.814300 20.564301 -0.329600 -1.131800 13.664900 -0.103400 0.954600 14.947000 -0.848700 -5.082800 33.696499 -0.662300 -1.262500 16.099400 -0.076600 -0.403800 25.817600 -1.597100 -7.233700 40.368099 -0.100700 -1.055300 17.758499 0.083000 1.507400 35.564999 -3.002800 -11.434400 45.553799 -0.543000 -0.492900 21.841101 -0.421800 1.803100 -22.921499 16.015100 14.874300 34.865799 9.910900 -0.024400 -11.928300 11.071100 -5.046800 -0.058300 0.000000 0.000000 -9.284900 -2.292800 3.104700 24.908300 -0.406100 5.552800 -14.119400 6.979000 -3.853400 -0.273900 -0.000000 -0.000000 
